<?xml version='1.0' encoding='UTF-8' standalone='no'?>
<svg width="419pt" height="314pt" viewBox="0 0 419 314" xmlns="http://www.w3.org/2000/svg" xmlns:xlink="http://www.w3.org/1999/xlink">
 <title>gl2ps_renderer figure</title>
 <desc>
Creator: GL2PS 1.4.2, (C) 1999-2020 C. Geuzaine
For: Octave
CreationDate: Thu Apr 18 09:26:17 2024
</desc>
 <defs/>
 <polygon fill="#ffffff" points="0,0 419,0 419,314 0,314"/>
 <g>
  <polygon fill="#ffffff" shape-rendering="crispEdges" points="0,314 419,314 419,0 0,0"/>
  <clipPath id="cp00419314">
   <polygon points="0,314 419,314 419,0 0,0"/>
  </clipPath>
  <g clip-path="url(#cp00419314)">
   <polygon fill="#ffffff" shape-rendering="crispEdges" points="54.5283,279.982 379.601,279.982 379.601,23.594 54.5283,23.594"/>
   <polyline stroke-linejoin="miter" stroke="#262626" stroke-opacity="0.15" fill="none" stroke-width="0.5" stroke-linecap="butt" stroke-dasharray="16,0" points="54.5283,279.982 54.5283,23.594"/>
   <polyline stroke-linejoin="miter" stroke="#262626" stroke-opacity="0.15" fill="none" stroke-width="0.5" stroke-linecap="butt" stroke-dasharray="16,0" points="108.707,279.982 108.707,23.594"/>
   <polyline stroke-linejoin="miter" stroke="#262626" stroke-opacity="0.15" fill="none" stroke-width="0.5" stroke-linecap="butt" stroke-dasharray="16,0" points="162.886,279.982 162.886,23.594"/>
   <polyline stroke-linejoin="miter" stroke="#262626" stroke-opacity="0.15" fill="none" stroke-width="0.5" stroke-linecap="butt" stroke-dasharray="16,0" points="217.064,279.982 217.064,23.594"/>
   <polyline stroke-linejoin="miter" stroke="#262626" stroke-opacity="0.15" fill="none" stroke-width="0.5" stroke-linecap="butt" stroke-dasharray="16,0" points="271.243,279.982 271.243,23.594"/>
   <polyline stroke-linejoin="miter" stroke="#262626" stroke-opacity="0.15" fill="none" stroke-width="0.5" stroke-linecap="butt" stroke-dasharray="16,0" points="325.422,279.982 325.422,23.594"/>
   <polyline stroke-linejoin="miter" stroke="#262626" stroke-opacity="0.15" fill="none" stroke-width="0.5" stroke-linecap="butt" stroke-dasharray="16,0" points="379.601,279.982 379.601,23.594"/>
   <polyline stroke-linejoin="miter" stroke="#262626" fill="none" stroke-width="0.5" stroke-linecap="butt" points="54.5283,279.982 54.5283,276.726"/>
   <polyline stroke-linejoin="miter" stroke="#262626" fill="none" stroke-width="0.5" stroke-linecap="butt" points="54.5283,23.594 54.5283,26.8496"/>
   <polyline stroke-linejoin="miter" stroke="#262626" fill="none" stroke-width="0.5" stroke-linecap="butt" points="108.707,279.982 108.707,276.726"/>
   <polyline stroke-linejoin="miter" stroke="#262626" fill="none" stroke-width="0.5" stroke-linecap="butt" points="108.707,23.594 108.707,26.8496"/>
   <polyline stroke-linejoin="miter" stroke="#262626" fill="none" stroke-width="0.5" stroke-linecap="butt" points="162.886,279.982 162.886,276.726"/>
   <polyline stroke-linejoin="miter" stroke="#262626" fill="none" stroke-width="0.5" stroke-linecap="butt" points="162.886,23.594 162.886,26.8496"/>
   <polyline stroke-linejoin="miter" stroke="#262626" fill="none" stroke-width="0.5" stroke-linecap="butt" points="217.064,279.982 217.064,276.726"/>
   <polyline stroke-linejoin="miter" stroke="#262626" fill="none" stroke-width="0.5" stroke-linecap="butt" points="217.064,23.594 217.064,26.8496"/>
   <polyline stroke-linejoin="miter" stroke="#262626" fill="none" stroke-width="0.5" stroke-linecap="butt" points="271.243,279.982 271.243,276.726"/>
   <polyline stroke-linejoin="miter" stroke="#262626" fill="none" stroke-width="0.5" stroke-linecap="butt" points="271.243,23.594 271.243,26.8496"/>
   <polyline stroke-linejoin="miter" stroke="#262626" fill="none" stroke-width="0.5" stroke-linecap="butt" points="325.422,279.982 325.422,276.726"/>
   <polyline stroke-linejoin="miter" stroke="#262626" fill="none" stroke-width="0.5" stroke-linecap="butt" points="325.422,23.594 325.422,26.8496"/>
   <polyline stroke-linejoin="miter" stroke="#262626" fill="none" stroke-width="0.5" stroke-linecap="butt" points="379.601,279.982 379.601,276.726"/>
   <polyline stroke-linejoin="miter" stroke="#262626" fill="none" stroke-width="0.5" stroke-linecap="butt" points="379.601,23.594 379.601,26.8496"/>
   <text font-family="FreeSans" transform="translate(51.5283,295.493) rotate(-0,3,-8)" font-style="normal" font-size="10" xml:space="preserve" font-weight="normal">
    <tspan y="-0" fill="rgb(38,38,38)" x="0 ">0</tspan>
   </text>
   <text font-family="FreeSans" transform="translate(102.707,295.493) rotate(-0,6,-8)" font-style="normal" font-size="10" xml:space="preserve" font-weight="normal">
    <tspan y="-0" fill="rgb(38,38,38)" x="0 6 ">20</tspan>
   </text>
   <text font-family="FreeSans" transform="translate(156.886,295.493) rotate(-0,6,-8)" font-style="normal" font-size="10" xml:space="preserve" font-weight="normal">
    <tspan y="-0" fill="rgb(38,38,38)" x="0 6 ">40</tspan>
   </text>
   <text font-family="FreeSans" transform="translate(211.064,295.493) rotate(-0,6,-8)" font-style="normal" font-size="10" xml:space="preserve" font-weight="normal">
    <tspan y="-0" fill="rgb(38,38,38)" x="0 6 ">60</tspan>
   </text>
   <text font-family="FreeSans" transform="translate(265.243,295.493) rotate(-0,6,-8)" font-style="normal" font-size="10" xml:space="preserve" font-weight="normal">
    <tspan y="-0" fill="rgb(38,38,38)" x="0 6 ">80</tspan>
   </text>
   <text font-family="FreeSans" transform="translate(316.422,295.493) rotate(-0,9,-8)" font-style="normal" font-size="10" xml:space="preserve" font-weight="normal">
    <tspan y="-0" fill="rgb(38,38,38)" x="0 6 12 ">100</tspan>
   </text>
   <text font-family="FreeSans" transform="translate(370.601,295.493) rotate(-0,9,-8)" font-style="normal" font-size="10" xml:space="preserve" font-weight="normal">
    <tspan y="-0" fill="rgb(38,38,38)" x="0 6 12 ">120</tspan>
   </text>
   <polyline stroke-linejoin="miter" stroke="#262626" stroke-opacity="0.15" fill="none" stroke-width="0.5" stroke-linecap="butt" stroke-dasharray="16,0" points="54.5283,279.982 379.601,279.982"/>
   <polyline stroke-linejoin="miter" stroke="#262626" stroke-opacity="0.15" fill="none" stroke-width="0.5" stroke-linecap="butt" stroke-dasharray="16,0" points="54.5283,237.25 379.601,237.25"/>
   <polyline stroke-linejoin="miter" stroke="#262626" stroke-opacity="0.15" fill="none" stroke-width="0.5" stroke-linecap="butt" stroke-dasharray="16,0" points="54.5283,194.519 379.601,194.519"/>
   <polyline stroke-linejoin="miter" stroke="#262626" stroke-opacity="0.15" fill="none" stroke-width="0.5" stroke-linecap="butt" stroke-dasharray="16,0" points="54.5283,151.788 379.601,151.788"/>
   <polyline stroke-linejoin="miter" stroke="#262626" stroke-opacity="0.15" fill="none" stroke-width="0.5" stroke-linecap="butt" stroke-dasharray="16,0" points="54.5283,109.057 379.601,109.057"/>
   <polyline stroke-linejoin="miter" stroke="#262626" stroke-opacity="0.15" fill="none" stroke-width="0.5" stroke-linecap="butt" stroke-dasharray="16,0" points="54.5283,66.3252 379.601,66.3252"/>
   <polyline stroke-linejoin="miter" stroke="#262626" stroke-opacity="0.15" fill="none" stroke-width="0.5" stroke-linecap="butt" stroke-dasharray="16,0" points="54.5283,23.594 379.601,23.594"/>
   <polyline stroke-linejoin="miter" stroke="#262626" fill="none" stroke-width="0.5" stroke-linecap="butt" points="54.5283,279.982 57.7797,279.982"/>
   <polyline stroke-linejoin="miter" stroke="#262626" fill="none" stroke-width="0.5" stroke-linecap="butt" points="379.601,279.982 376.349,279.982"/>
   <polyline stroke-linejoin="miter" stroke="#262626" fill="none" stroke-width="0.5" stroke-linecap="butt" points="54.5283,237.25 57.7797,237.25"/>
   <polyline stroke-linejoin="miter" stroke="#262626" fill="none" stroke-width="0.5" stroke-linecap="butt" points="379.601,237.25 376.349,237.25"/>
   <polyline stroke-linejoin="miter" stroke="#262626" fill="none" stroke-width="0.5" stroke-linecap="butt" points="54.5283,194.519 57.7797,194.519"/>
   <polyline stroke-linejoin="miter" stroke="#262626" fill="none" stroke-width="0.5" stroke-linecap="butt" points="379.601,194.519 376.349,194.519"/>
   <polyline stroke-linejoin="miter" stroke="#262626" fill="none" stroke-width="0.5" stroke-linecap="butt" points="54.5283,151.788 57.7797,151.788"/>
   <polyline stroke-linejoin="miter" stroke="#262626" fill="none" stroke-width="0.5" stroke-linecap="butt" points="379.601,151.788 376.349,151.788"/>
   <polyline stroke-linejoin="miter" stroke="#262626" fill="none" stroke-width="0.5" stroke-linecap="butt" points="54.5283,109.057 57.7797,109.057"/>
   <polyline stroke-linejoin="miter" stroke="#262626" fill="none" stroke-width="0.5" stroke-linecap="butt" points="379.601,109.057 376.349,109.057"/>
   <polyline stroke-linejoin="miter" stroke="#262626" fill="none" stroke-width="0.5" stroke-linecap="butt" points="54.5283,66.3252 57.7797,66.3252"/>
   <polyline stroke-linejoin="miter" stroke="#262626" fill="none" stroke-width="0.5" stroke-linecap="butt" points="379.601,66.3252 376.349,66.3252"/>
   <polyline stroke-linejoin="miter" stroke="#262626" fill="none" stroke-width="0.5" stroke-linecap="butt" points="54.5283,23.594 57.7797,23.594"/>
   <polyline stroke-linejoin="miter" stroke="#262626" fill="none" stroke-width="0.5" stroke-linecap="butt" points="379.601,23.594 376.349,23.594"/>
   <text font-family="FreeSans" transform="translate(34.5271,283.982) rotate(-0,15,-4)" font-style="normal" font-size="10" xml:space="preserve" font-weight="normal">
    <tspan y="-0" fill="rgb(38,38,38)" x="0 3 9 ">-10</tspan>
   </text>
   <text font-family="FreeSans" transform="translate(40.5271,241.25) rotate(-0,9,-4)" font-style="normal" font-size="10" xml:space="preserve" font-weight="normal">
    <tspan y="-0" fill="rgb(38,38,38)" x="0 3 ">-8</tspan>
   </text>
   <text font-family="FreeSans" transform="translate(40.5271,198.519) rotate(-0,9,-4)" font-style="normal" font-size="10" xml:space="preserve" font-weight="normal">
    <tspan y="-0" fill="rgb(38,38,38)" x="0 3 ">-6</tspan>
   </text>
   <text font-family="FreeSans" transform="translate(40.5271,155.788) rotate(-0,9,-4)" font-style="normal" font-size="10" xml:space="preserve" font-weight="normal">
    <tspan y="-0" fill="rgb(38,38,38)" x="0 3 ">-4</tspan>
   </text>
   <text font-family="FreeSans" transform="translate(40.5271,113.057) rotate(-0,9,-4)" font-style="normal" font-size="10" xml:space="preserve" font-weight="normal">
    <tspan y="-0" fill="rgb(38,38,38)" x="0 3 ">-2</tspan>
   </text>
   <text font-family="FreeSans" transform="translate(43.5271,70.3252) rotate(-0,6,-4)" font-style="normal" font-size="10" xml:space="preserve" font-weight="normal">
    <tspan y="-0" fill="rgb(38,38,38)" x="0 ">0</tspan>
   </text>
   <text font-family="FreeSans" transform="translate(43.5271,27.594) rotate(-0,6,-4)" font-style="normal" font-size="10" xml:space="preserve" font-weight="normal">
    <tspan y="-0" fill="rgb(38,38,38)" x="0 ">2</tspan>
   </text>
   <polyline stroke-linejoin="miter" stroke="#262626" fill="none" stroke-width="0.5" stroke-linecap="square" stroke-dasharray="16,0" points="54.5283,279.982 379.601,279.982"/>
   <polyline stroke-linejoin="miter" stroke="#262626" fill="none" stroke-width="0.5" stroke-linecap="square" stroke-dasharray="16,0" points="54.5283,23.594 379.601,23.594"/>
   <polyline stroke-linejoin="miter" stroke="#262626" fill="none" stroke-width="0.5" stroke-linecap="square" stroke-dasharray="16,0" points="54.5283,279.982 54.5283,23.594"/>
   <polyline stroke-linejoin="miter" stroke="#262626" fill="none" stroke-width="0.5" stroke-linecap="square" stroke-dasharray="16,0" points="379.601,279.982 379.601,23.594"/>
   <text font-family="FreeSans" transform="translate(173.064,312.493) rotate(-0,44,-12)" font-style="normal" font-size="11" xml:space="preserve" font-weight="normal">
    <tspan y="-3" fill="rgb(38,38,38)" x="0 9 15 22 28 35 38 43 50 56 62 68 73 79 82 ">Объем выборки n</tspan>
   </text>
   <polyline stroke-linejoin="round" stroke="#000000" fill="none" stroke-width="2" stroke-linecap="butt" points="57.2372,100.608 59.9461,100.608 62.6551,100.608 65.364,100.608 68.0729,100.608 70.7819,100.608 73.4908,100.608 76.1998,100.608 78.9087,100.608 81.6176,100.608 84.3266,100.608 87.0355,100.608 89.7444,100.608 92.4534,100.608 95.1623,100.608 97.8712,100.608 100.58,100.608 103.289,100.608 105.998,100.608 108.707,100.608 111.416,100.608 114.125,100.608 116.834,100.608 119.543,100.608 122.252,100.608 124.961,100.608 127.67,100.608 130.378,100.608 133.087,100.608 135.796,100.608 138.505,100.608 141.214,100.608 143.923,100.608 146.632,100.608 149.341,100.608 152.05,100.608 154.759,100.608 157.468,100.608 160.177,100.608 162.886,100.608 165.595,100.608 168.304,100.608 171.013,100.608 173.721,100.608 176.43,100.608 179.139,100.608 181.848,100.608 184.557,100.608 187.266,100.608 189.975,100.608 192.684,100.608 195.393,100.608 198.102,100.608 200.811,100.608 203.52,100.608 206.229,100.608 208.938,100.608 211.647,100.608 214.355,100.608 217.064,100.608 219.773,100.608 222.482,100.608 225.191,100.608 227.9,100.608 230.609,100.608 233.318,100.608 236.027,100.608 238.736,100.608 241.445,100.608 244.154,100.608 246.863,100.608 249.572,100.608 252.281,100.608 254.99,100.608 257.698,100.608 260.407,100.608 263.116,100.608 265.825,100.608 268.534,100.608 271.243,100.608 273.952,100.608 276.661,100.608 279.37,100.608 282.079,100.608 284.788,100.608 287.497,100.608 290.206,100.608 292.915,100.608 295.624,100.608 298.332,100.608 301.041,100.608 303.75,100.608 306.459,100.608 309.168,100.608 311.877,100.608 314.586,100.608 317.295,100.608 320.004,100.608 322.713,100.608 325.422,100.608 328.131,100.608 330.84,100.608 333.549,100.608 336.258,100.608 338.967,100.608 341.675,100.608 344.384,100.608 347.093,100.608 349.802,100.608 352.511,100.608 355.22,100.608 357.929,100.608 360.638,100.608 363.347,100.608 366.056,100.608 368.765,100.608 371.474,100.608 374.183,100.608 376.892,100.608 379.601,100.608"/>
   <polyline stroke-linejoin="round" stroke="#00ffff" fill="none" stroke-width="2" stroke-linecap="butt" points="57.2372,154.138 59.9461,152.536 62.6551,150.648 65.364,149.277 68.0729,147.045 70.7819,144.915 73.4908,143.272 76.1998,141.773 78.9087,140.583 81.6176,139.567 84.3266,138.463 87.0355,137.455 89.7444,136.585 92.4534,135.825 95.1623,135.165 97.8712,134.495 100.58,133.816 103.289,133.164 105.998,132.581 108.707,132.025 111.416,131.48 114.125,130.956 116.834,130.422 119.543,129.924 122.252,129.448 124.961,129.009 127.67,128.531 130.378,128.064 133.087,127.608 135.796,127.167 138.505,126.749 141.214,126.343 143.923,125.955 146.632,125.59 149.341,125.221 152.05,124.837 154.759,124.474 157.468,124.131 160.177,123.793 162.886,123.473 165.595,123.163 168.304,122.848 171.013,122.547 173.721,122.24 176.43,121.942 179.139,121.648 181.848,121.367 184.557,121.075 187.266,120.786 189.975,120.504 192.684,120.234 195.393,119.965 198.102,119.683 200.811,119.407 203.52,119.137 206.229,118.866 208.938,118.577 211.647,118.292 214.355,118.012 217.064,117.738 219.773,117.47 222.482,117.193 225.191,116.924 227.9,116.651 230.609,116.387 233.318,116.123 236.027,115.862 238.736,115.604 241.445,115.352 244.154,115.1 246.863,114.84 249.572,114.582 252.281,114.322 254.99,114.066 257.698,113.808 260.407,113.549 263.116,113.294 265.825,113.045 268.534,112.791 271.243,112.542 273.952,112.285 276.661,112.032 279.37,111.78 282.079,111.529 284.788,111.281 287.497,111.027 290.206,110.778 292.915,110.523 295.624,110.274 298.332,110.008 301.041,109.737 303.75,109.456 306.459,109.174 309.168,108.895 311.877,108.613 314.586,108.338 317.295,108.063 320.004,107.788 322.713,107.516 325.422,107.247 328.131,106.979 330.84,106.717 333.549,106.437 336.258,106.143 338.967,105.85 341.675,105.559 344.384,105.251 347.093,104.936 349.802,104.625 352.511,104.317 355.22,104.01 357.929,103.7 360.638,103.386 363.347,103.061 366.056,102.738 368.765,102.4 371.474,102.055 374.183,101.613 376.892,101.148 379.601,100.608"/>
   <polyline stroke-linejoin="round" stroke="#ff0000" fill="none" stroke-width="2" stroke-linecap="butt" points="59.9461,249.535 62.6551,187.276 65.364,174.843 68.0729,167.759 70.7819,162.788 73.4908,159.229 76.1998,156.326 78.9087,154.05 81.6176,152.161 84.3266,150.337 87.0355,148.719 89.7444,147.325 92.4534,146.108 95.1623,145.046 97.8712,144.017 100.58,143.015 103.289,142.073 105.998,141.225 108.707,140.425 111.416,139.657 114.125,138.927 116.834,138.201 119.543,137.525 122.252,136.882 124.961,136.287 127.67,135.663 130.378,135.058 133.087,134.471 135.796,133.907 138.505,133.372 141.214,132.855 143.923,132.361 146.632,131.896 149.341,131.431 152.05,130.956 154.759,130.505 157.468,130.077 160.177,129.659 162.886,129.261 165.595,128.877 168.304,128.489 171.013,128.119 173.721,127.746 176.43,127.384 179.139,127.028 181.848,126.687 184.557,126.337 187.266,125.992 189.975,125.656 192.684,125.332 195.393,125.013 198.102,124.681 200.811,124.357 203.52,124.04 206.229,123.723 208.938,123.39 211.647,123.062 214.355,122.74 217.064,122.425 219.773,122.117 222.482,121.801 225.191,121.495 227.9,121.185 230.609,120.884 233.318,120.586 236.027,120.29 238.736,119.999 241.445,119.713 244.154,119.429 246.863,119.138 249.572,118.849 252.281,118.559 254.99,118.274 257.698,117.987 260.407,117.7 263.116,117.416 265.825,117.141 268.534,116.861 271.243,116.585 273.952,116.302 276.661,116.024 279.37,115.747 282.079,115.472 284.788,115.201 287.497,114.923 290.206,114.651 292.915,114.374 295.624,114.102 298.332,113.815 301.041,113.523 303.75,113.22 306.459,112.917 309.168,112.618 311.877,112.317 314.586,112.021 317.295,111.727 320.004,111.432 322.713,111.142 325.422,110.854 328.131,110.568 330.84,110.288 333.549,109.99 336.258,109.68 338.967,109.369 341.675,109.061 344.384,108.736 347.093,108.405 349.802,108.077 352.511,107.754 355.22,107.43 357.929,107.105 360.638,106.776 363.347,106.436 366.056,106.098 368.765,105.745 371.474,105.386 374.183,104.929 376.892,104.45 379.601,103.896"/>
   <polyline stroke-linejoin="round" stroke="#0000ff" fill="none" stroke-width="2" stroke-linecap="butt" points="59.9461,55.5365 62.6551,114.02 65.364,123.712 68.0729,126.331 70.7819,127.042 73.4908,127.315 76.1998,127.219 78.9087,127.115 81.6176,126.972 84.3266,126.59 87.0355,126.191 89.7444,125.845 92.4534,125.541 95.1623,125.285 97.8712,124.973 100.58,124.616 103.289,124.255 105.998,123.938 108.707,123.624 111.416,123.303 114.125,122.986 116.834,122.643 119.543,122.323 122.252,122.013 124.961,121.73 127.67,121.399 130.378,121.071 133.087,120.744 135.796,120.427 138.505,120.126 141.214,119.831 143.923,119.548 146.632,119.284 149.341,119.011 152.05,118.719 154.759,118.444 157.468,118.184 160.177,117.928 162.886,117.685 165.595,117.449 168.304,117.206 171.013,116.974 173.721,116.734 176.43,116.5 179.139,116.268 181.848,116.047 184.557,115.813 187.266,115.58 189.975,115.353 192.684,115.135 195.393,114.918 198.102,114.685 200.811,114.457 203.52,114.234 206.229,114.008 208.938,113.764 211.647,113.522 214.355,113.284 217.064,113.051 219.773,112.822 222.482,112.584 225.191,112.354 227.9,112.117 230.609,111.889 233.318,111.661 236.027,111.433 238.736,111.21 241.445,110.99 244.154,110.77 246.863,110.542 249.572,110.315 252.281,110.085 254.99,109.858 257.698,109.629 260.407,109.398 263.116,109.171 265.825,108.949 268.534,108.722 271.243,108.499 273.952,108.268 276.661,108.04 279.37,107.812 282.079,107.586 284.788,107.362 287.497,107.13 290.206,106.905 292.915,106.672 295.624,106.445 298.332,106.202 301.041,105.952 303.75,105.692 306.459,105.43 309.168,105.172 311.877,104.91 314.586,104.654 317.295,104.399 320.004,104.143 322.713,103.89 325.422,103.639 328.131,103.39 330.84,103.145 333.549,102.883 336.258,102.607 338.967,102.331 341.675,102.057 344.384,101.765 347.093,101.467 349.802,101.172 352.511,100.881 355.22,100.589 357.929,100.295 360.638,99.9962 363.347,99.6862 366.056,99.378 368.765,99.0549 371.474,98.7246 374.183,98.2968 376.892,97.8457 379.601,97.3202"/>
  </g>
 </g>
</svg>
