<?xml version='1.0' encoding='UTF-8' standalone='no'?>
<svg xmlns:xlink="http://www.w3.org/1999/xlink" height="314pt" width="419pt" viewBox="0 0 419 314" xmlns="http://www.w3.org/2000/svg">
 <title>gl2ps_renderer figure</title>
 <desc>
Creator: GL2PS 1.4.2, (C) 1999-2020 C. Geuzaine
For: Octave
CreationDate: Thu Apr 18 09:44:30 2024
</desc>
 <defs/>
 <polygon points="0,0 419,0 419,314 0,314" fill="#ffffff"/>
 <g>
  <polygon shape-rendering="crispEdges" points="0,314 419,314 419,0 0,0" fill="#ffffff"/>
  <clipPath id="cp00419314">
   <polygon points="0,314 419,314 419,0 0,0"/>
  </clipPath>
  <g clip-path="url(#cp00419314)">
   <polygon shape-rendering="crispEdges" points="54.5283,279.982 379.601,279.982 379.601,23.594 54.5283,23.594" fill="#ffffff"/>
   <polyline stroke-width="0.5" stroke-linecap="butt" stroke-dasharray="16,0" points="54.5283,279.982 54.5283,23.594" stroke-opacity="0.15" fill="none" stroke-linejoin="miter" stroke="#262626"/>
   <polyline stroke-width="0.5" stroke-linecap="butt" stroke-dasharray="16,0" points="108.707,279.982 108.707,23.594" stroke-opacity="0.15" fill="none" stroke-linejoin="miter" stroke="#262626"/>
   <polyline stroke-width="0.5" stroke-linecap="butt" stroke-dasharray="16,0" points="162.886,279.982 162.886,23.594" stroke-opacity="0.15" fill="none" stroke-linejoin="miter" stroke="#262626"/>
   <polyline stroke-width="0.5" stroke-linecap="butt" stroke-dasharray="16,0" points="217.064,279.982 217.064,23.594" stroke-opacity="0.15" fill="none" stroke-linejoin="miter" stroke="#262626"/>
   <polyline stroke-width="0.5" stroke-linecap="butt" stroke-dasharray="16,0" points="271.243,279.982 271.243,23.594" stroke-opacity="0.15" fill="none" stroke-linejoin="miter" stroke="#262626"/>
   <polyline stroke-width="0.5" stroke-linecap="butt" stroke-dasharray="16,0" points="325.422,279.982 325.422,23.594" stroke-opacity="0.15" fill="none" stroke-linejoin="miter" stroke="#262626"/>
   <polyline stroke-width="0.5" stroke-linecap="butt" stroke-dasharray="16,0" points="379.601,279.982 379.601,23.594" stroke-opacity="0.15" fill="none" stroke-linejoin="miter" stroke="#262626"/>
   <polyline stroke-width="0.5" stroke-linecap="butt" points="54.5283,279.982 54.5283,276.726" fill="none" stroke-linejoin="miter" stroke="#262626"/>
   <polyline stroke-width="0.5" stroke-linecap="butt" points="54.5283,23.594 54.5283,26.8496" fill="none" stroke-linejoin="miter" stroke="#262626"/>
   <polyline stroke-width="0.5" stroke-linecap="butt" points="108.707,279.982 108.707,276.726" fill="none" stroke-linejoin="miter" stroke="#262626"/>
   <polyline stroke-width="0.5" stroke-linecap="butt" points="108.707,23.594 108.707,26.8496" fill="none" stroke-linejoin="miter" stroke="#262626"/>
   <polyline stroke-width="0.5" stroke-linecap="butt" points="162.886,279.982 162.886,276.726" fill="none" stroke-linejoin="miter" stroke="#262626"/>
   <polyline stroke-width="0.5" stroke-linecap="butt" points="162.886,23.594 162.886,26.8496" fill="none" stroke-linejoin="miter" stroke="#262626"/>
   <polyline stroke-width="0.5" stroke-linecap="butt" points="217.064,279.982 217.064,276.726" fill="none" stroke-linejoin="miter" stroke="#262626"/>
   <polyline stroke-width="0.5" stroke-linecap="butt" points="217.064,23.594 217.064,26.8496" fill="none" stroke-linejoin="miter" stroke="#262626"/>
   <polyline stroke-width="0.5" stroke-linecap="butt" points="271.243,279.982 271.243,276.726" fill="none" stroke-linejoin="miter" stroke="#262626"/>
   <polyline stroke-width="0.5" stroke-linecap="butt" points="271.243,23.594 271.243,26.8496" fill="none" stroke-linejoin="miter" stroke="#262626"/>
   <polyline stroke-width="0.5" stroke-linecap="butt" points="325.422,279.982 325.422,276.726" fill="none" stroke-linejoin="miter" stroke="#262626"/>
   <polyline stroke-width="0.5" stroke-linecap="butt" points="325.422,23.594 325.422,26.8496" fill="none" stroke-linejoin="miter" stroke="#262626"/>
   <polyline stroke-width="0.5" stroke-linecap="butt" points="379.601,279.982 379.601,276.726" fill="none" stroke-linejoin="miter" stroke="#262626"/>
   <polyline stroke-width="0.5" stroke-linecap="butt" points="379.601,23.594 379.601,26.8496" fill="none" stroke-linejoin="miter" stroke="#262626"/>
   <text transform="translate(51.5283,295.493) rotate(-0,3,-8)" font-style="normal" font-size="10" xml:space="preserve" font-weight="normal" font-family="FreeSans">
    <tspan y="-0" fill="rgb(38,38,38)" x="0 ">0</tspan>
   </text>
   <text transform="translate(102.707,295.493) rotate(-0,6,-8)" font-style="normal" font-size="10" xml:space="preserve" font-weight="normal" font-family="FreeSans">
    <tspan y="-0" fill="rgb(38,38,38)" x="0 6 ">20</tspan>
   </text>
   <text transform="translate(156.886,295.493) rotate(-0,6,-8)" font-style="normal" font-size="10" xml:space="preserve" font-weight="normal" font-family="FreeSans">
    <tspan y="-0" fill="rgb(38,38,38)" x="0 6 ">40</tspan>
   </text>
   <text transform="translate(211.064,295.493) rotate(-0,6,-8)" font-style="normal" font-size="10" xml:space="preserve" font-weight="normal" font-family="FreeSans">
    <tspan y="-0" fill="rgb(38,38,38)" x="0 6 ">60</tspan>
   </text>
   <text transform="translate(265.243,295.493) rotate(-0,6,-8)" font-style="normal" font-size="10" xml:space="preserve" font-weight="normal" font-family="FreeSans">
    <tspan y="-0" fill="rgb(38,38,38)" x="0 6 ">80</tspan>
   </text>
   <text transform="translate(316.422,295.493) rotate(-0,9,-8)" font-style="normal" font-size="10" xml:space="preserve" font-weight="normal" font-family="FreeSans">
    <tspan y="-0" fill="rgb(38,38,38)" x="0 6 12 ">100</tspan>
   </text>
   <text transform="translate(370.601,295.493) rotate(-0,9,-8)" font-style="normal" font-size="10" xml:space="preserve" font-weight="normal" font-family="FreeSans">
    <tspan y="-0" fill="rgb(38,38,38)" x="0 6 12 ">120</tspan>
   </text>
   <polyline stroke-width="0.5" stroke-linecap="butt" stroke-dasharray="16,0" points="54.5283,279.982 379.601,279.982" stroke-opacity="0.15" fill="none" stroke-linejoin="miter" stroke="#262626"/>
   <polyline stroke-width="0.5" stroke-linecap="butt" stroke-dasharray="16,0" points="54.5283,243.355 379.601,243.355" stroke-opacity="0.15" fill="none" stroke-linejoin="miter" stroke="#262626"/>
   <polyline stroke-width="0.5" stroke-linecap="butt" stroke-dasharray="16,0" points="54.5283,206.728 379.601,206.728" stroke-opacity="0.15" fill="none" stroke-linejoin="miter" stroke="#262626"/>
   <polyline stroke-width="0.5" stroke-linecap="butt" stroke-dasharray="16,0" points="54.5283,170.101 379.601,170.101" stroke-opacity="0.15" fill="none" stroke-linejoin="miter" stroke="#262626"/>
   <polyline stroke-width="0.5" stroke-linecap="butt" stroke-dasharray="16,0" points="54.5283,133.474 379.601,133.474" stroke-opacity="0.15" fill="none" stroke-linejoin="miter" stroke="#262626"/>
   <polyline stroke-width="0.5" stroke-linecap="butt" stroke-dasharray="16,0" points="54.5283,96.8476 379.601,96.8476" stroke-opacity="0.15" fill="none" stroke-linejoin="miter" stroke="#262626"/>
   <polyline stroke-width="0.5" stroke-linecap="butt" stroke-dasharray="16,0" points="54.5283,60.2208 379.601,60.2208" stroke-opacity="0.15" fill="none" stroke-linejoin="miter" stroke="#262626"/>
   <polyline stroke-width="0.5" stroke-linecap="butt" stroke-dasharray="16,0" points="54.5283,23.594 379.601,23.594" stroke-opacity="0.15" fill="none" stroke-linejoin="miter" stroke="#262626"/>
   <polyline stroke-width="0.5" stroke-linecap="butt" points="54.5283,279.982 57.7797,279.982" fill="none" stroke-linejoin="miter" stroke="#262626"/>
   <polyline stroke-width="0.5" stroke-linecap="butt" points="379.601,279.982 376.349,279.982" fill="none" stroke-linejoin="miter" stroke="#262626"/>
   <polyline stroke-width="0.5" stroke-linecap="butt" points="54.5283,243.355 57.7797,243.355" fill="none" stroke-linejoin="miter" stroke="#262626"/>
   <polyline stroke-width="0.5" stroke-linecap="butt" points="379.601,243.355 376.349,243.355" fill="none" stroke-linejoin="miter" stroke="#262626"/>
   <polyline stroke-width="0.5" stroke-linecap="butt" points="54.5283,206.728 57.7797,206.728" fill="none" stroke-linejoin="miter" stroke="#262626"/>
   <polyline stroke-width="0.5" stroke-linecap="butt" points="379.601,206.728 376.349,206.728" fill="none" stroke-linejoin="miter" stroke="#262626"/>
   <polyline stroke-width="0.5" stroke-linecap="butt" points="54.5283,170.101 57.7797,170.101" fill="none" stroke-linejoin="miter" stroke="#262626"/>
   <polyline stroke-width="0.5" stroke-linecap="butt" points="379.601,170.101 376.349,170.101" fill="none" stroke-linejoin="miter" stroke="#262626"/>
   <polyline stroke-width="0.5" stroke-linecap="butt" points="54.5283,133.474 57.7797,133.474" fill="none" stroke-linejoin="miter" stroke="#262626"/>
   <polyline stroke-width="0.5" stroke-linecap="butt" points="379.601,133.474 376.349,133.474" fill="none" stroke-linejoin="miter" stroke="#262626"/>
   <polyline stroke-width="0.5" stroke-linecap="butt" points="54.5283,96.8476 57.7797,96.8476" fill="none" stroke-linejoin="miter" stroke="#262626"/>
   <polyline stroke-width="0.5" stroke-linecap="butt" points="379.601,96.8476 376.349,96.8476" fill="none" stroke-linejoin="miter" stroke="#262626"/>
   <polyline stroke-width="0.5" stroke-linecap="butt" points="54.5283,60.2208 57.7797,60.2208" fill="none" stroke-linejoin="miter" stroke="#262626"/>
   <polyline stroke-width="0.5" stroke-linecap="butt" points="379.601,60.2208 376.349,60.2208" fill="none" stroke-linejoin="miter" stroke="#262626"/>
   <polyline stroke-width="0.5" stroke-linecap="butt" points="54.5283,23.594 57.7797,23.594" fill="none" stroke-linejoin="miter" stroke="#262626"/>
   <polyline stroke-width="0.5" stroke-linecap="butt" points="379.601,23.594 376.349,23.594" fill="none" stroke-linejoin="miter" stroke="#262626"/>
   <text transform="translate(43.5271,283.982) rotate(-0,6,-4)" font-style="normal" font-size="10" xml:space="preserve" font-weight="normal" font-family="FreeSans">
    <tspan y="-0" fill="rgb(38,38,38)" x="0 ">0</tspan>
   </text>
   <text transform="translate(31.5271,247.355) rotate(-0,18,-4)" font-style="normal" font-size="10" xml:space="preserve" font-weight="normal" font-family="FreeSans">
    <tspan y="-0" fill="rgb(38,38,38)" x="0 6 12 ">500</tspan>
   </text>
   <text transform="translate(25.5271,210.728) rotate(-0,24,-4)" font-style="normal" font-size="10" xml:space="preserve" font-weight="normal" font-family="FreeSans">
    <tspan y="-0" fill="rgb(38,38,38)" x="0 6 12 18 ">1000</tspan>
   </text>
   <text transform="translate(25.5271,174.101) rotate(-0,24,-4)" font-style="normal" font-size="10" xml:space="preserve" font-weight="normal" font-family="FreeSans">
    <tspan y="-0" fill="rgb(38,38,38)" x="0 6 12 18 ">1500</tspan>
   </text>
   <text transform="translate(25.5271,137.474) rotate(-0,24,-4)" font-style="normal" font-size="10" xml:space="preserve" font-weight="normal" font-family="FreeSans">
    <tspan y="-0" fill="rgb(38,38,38)" x="0 6 12 18 ">2000</tspan>
   </text>
   <text transform="translate(25.5271,100.848) rotate(-0,24,-4)" font-style="normal" font-size="10" xml:space="preserve" font-weight="normal" font-family="FreeSans">
    <tspan y="-0" fill="rgb(38,38,38)" x="0 6 12 18 ">2500</tspan>
   </text>
   <text transform="translate(25.5271,64.2208) rotate(-0,24,-4)" font-style="normal" font-size="10" xml:space="preserve" font-weight="normal" font-family="FreeSans">
    <tspan y="-0" fill="rgb(38,38,38)" x="0 6 12 18 ">3000</tspan>
   </text>
   <text transform="translate(25.5271,27.594) rotate(-0,24,-4)" font-style="normal" font-size="10" xml:space="preserve" font-weight="normal" font-family="FreeSans">
    <tspan y="-0" fill="rgb(38,38,38)" x="0 6 12 18 ">3500</tspan>
   </text>
   <polyline stroke-width="0.5" stroke-linecap="square" stroke-dasharray="16,0" points="54.5283,279.982 379.601,279.982" fill="none" stroke-linejoin="miter" stroke="#262626"/>
   <polyline stroke-width="0.5" stroke-linecap="square" stroke-dasharray="16,0" points="54.5283,23.594 379.601,23.594" fill="none" stroke-linejoin="miter" stroke="#262626"/>
   <polyline stroke-width="0.5" stroke-linecap="square" stroke-dasharray="16,0" points="54.5283,279.982 54.5283,23.594" fill="none" stroke-linejoin="miter" stroke="#262626"/>
   <polyline stroke-width="0.5" stroke-linecap="square" stroke-dasharray="16,0" points="379.601,279.982 379.601,23.594" fill="none" stroke-linejoin="miter" stroke="#262626"/>
   <text transform="translate(173.064,312.493) rotate(-0,44,-12)" font-style="normal" font-size="11" xml:space="preserve" font-weight="normal" font-family="FreeSans">
    <tspan y="-3" fill="rgb(38,38,38)" x="0 9 15 22 28 35 38 43 50 56 62 68 73 79 82 ">Объем выборки n</tspan>
   </text>
   <polyline stroke-width="2" stroke-linecap="butt" points="57.2372,279.906 59.9461,279.906 62.6551,279.906 65.364,279.906 68.0729,279.906 70.7819,279.906 73.4908,279.906 76.1998,279.906 78.9087,279.906 81.6176,279.906 84.3266,279.906 87.0355,279.906 89.7444,279.906 92.4534,279.906 95.1623,279.906 97.8712,279.906 100.58,279.906 103.289,279.906 105.998,279.906 108.707,279.906 111.416,279.906 114.125,279.906 116.834,279.906 119.543,279.906 122.252,279.906 124.961,279.906 127.67,279.906 130.378,279.906 133.087,279.906 135.796,279.906 138.505,279.906 141.214,279.906 143.923,279.906 146.632,279.906 149.341,279.906 152.05,279.906 154.759,279.906 157.468,279.906 160.177,279.906 162.886,279.906 165.595,279.906 168.304,279.906 171.013,279.906 173.721,279.906 176.43,279.906 179.139,279.906 181.848,279.906 184.557,279.906 187.266,279.906 189.975,279.906 192.684,279.906 195.393,279.906 198.102,279.906 200.811,279.906 203.52,279.906 206.229,279.906 208.938,279.906 211.647,279.906 214.355,279.906 217.064,279.906 219.773,279.906 222.482,279.906 225.191,279.906 227.9,279.906 230.609,279.906 233.318,279.906 236.027,279.906 238.736,279.906 241.445,279.906 244.154,279.906 246.863,279.906 249.572,279.906 252.281,279.906 254.99,279.906 257.698,279.906 260.407,279.906 263.116,279.906 265.825,279.906 268.534,279.906 271.243,279.906 273.952,279.906 276.661,279.906 279.37,279.906 282.079,279.906 284.788,279.906 287.497,279.906 290.206,279.906 292.915,279.906 295.624,279.906 298.332,279.906 301.041,279.906 303.75,279.906 306.459,279.906 309.168,279.906 311.877,279.906 314.586,279.906 317.295,279.906 320.004,279.906 322.713,279.906 325.422,279.906 328.131,279.906 330.84,279.906 333.549,279.906 336.258,279.906 338.967,279.906 341.675,279.906 344.384,279.906 347.093,279.906 349.802,279.906 352.511,279.906 355.22,279.906 357.929,279.906 360.638,279.906 363.347,279.906 366.056,279.906 368.765,279.906 371.474,279.906 374.183,279.906 376.892,279.906 379.601,279.906" fill="none" stroke-linejoin="round" stroke="#000000"/>
   <polyline stroke-width="2" stroke-linecap="butt" stroke-dasharray="8,8,8,8" points="59.9461,279.115 62.6551,279.377 65.364,279.472 68.0729,279.543 70.7819,279.594 73.4908,279.63 76.1998,279.659 78.9087,279.681 81.6176,279.698 84.3266,279.715 87.0355,279.73 89.7444,279.742 92.4534,279.752 95.1623,279.761 97.8712,279.77 100.58,279.778 103.289,279.786 105.998,279.793 108.707,279.799 111.416,279.805 114.125,279.81 116.834,279.816 119.543,279.821 122.252,279.825 124.961,279.83 127.67,279.834 130.378,279.838 133.087,279.842 135.796,279.846 138.505,279.849 141.214,279.853 143.923,279.856 146.632,279.859 149.341,279.862 152.05,279.865 154.759,279.868 157.468,279.87 160.177,279.873 162.886,279.875 165.595,279.877 168.304,279.879 171.013,279.882 173.721,279.884 176.43,279.886 179.139,279.887 181.848,279.889 184.557,279.891 187.266,279.893 189.975,279.895 192.684,279.896 195.393,279.898 198.102,279.899 200.811,279.901 203.52,279.902 206.229,279.904 208.938,279.905 211.647,279.906 214.355,279.908 217.064,279.909 219.773,279.91 222.482,279.911 225.191,279.912 227.9,279.914 230.609,279.915 233.318,279.916 236.027,279.917 238.736,279.918 241.445,279.918 244.154,279.919 246.863,279.92 249.572,279.921 252.281,279.922 254.99,279.923 257.698,279.923 260.407,279.924 263.116,279.925 265.825,279.925 268.534,279.926 271.243,279.927 273.952,279.927 276.661,279.928 279.37,279.928 282.079,279.928 284.788,279.929 287.497,279.929 290.206,279.93 292.915,279.93 295.624,279.93 298.332,279.931 301.041,279.931 303.75,279.931 306.459,279.931 309.168,279.931 311.877,279.931 314.586,279.931 317.295,279.931 320.004,279.931 322.713,279.93 325.422,279.93 328.131,279.93 330.84,279.93 333.549,279.93 336.258,279.929 338.967,279.929 341.675,279.928 344.384,279.928 347.093,279.927 349.802,279.926 352.511,279.925 355.22,279.924 357.929,279.923 360.638,279.922 363.347,279.921 366.056,279.92 368.765,279.919 371.474,279.917 374.183,279.914 376.892,279.911 379.601,279.906" fill="none" stroke-linejoin="round" stroke="#ff00ff"/>
   <polyline stroke-width="2" stroke-linecap="butt" stroke-dasharray="8,2,4,2,8,2,4,2" points="59.9461,279.756 62.6551,279.78 65.364,279.786 68.0729,279.797 70.7819,279.807 73.4908,279.814 76.1998,279.821 78.9087,279.826 81.6176,279.831 84.3266,279.836 87.0355,279.841 89.7444,279.845 92.4534,279.848 95.1623,279.851 97.8712,279.855 100.58,279.858 103.289,279.861 105.998,279.864 108.707,279.866 111.416,279.869 114.125,279.872 116.834,279.874 119.543,279.876 122.252,279.879 124.961,279.881 127.67,279.883 130.378,279.885 133.087,279.887 135.796,279.889 138.505,279.891 141.214,279.893 143.923,279.895 146.632,279.896 149.341,279.898 152.05,279.9 154.759,279.901 157.468,279.903 160.177,279.904 162.886,279.905 165.595,279.907 168.304,279.908 171.013,279.909 173.721,279.911 176.43,279.912 179.139,279.913 181.848,279.914 184.557,279.915 187.266,279.916 189.975,279.917 192.684,279.918 195.393,279.919 198.102,279.92 200.811,279.921 203.52,279.922 206.229,279.923 208.938,279.924 211.647,279.925 214.355,279.926 217.064,279.927 219.773,279.927 222.482,279.928 225.191,279.929 227.9,279.93 230.609,279.93 233.318,279.931 236.027,279.932 238.736,279.932 241.445,279.933 244.154,279.934 246.863,279.934 249.572,279.935 252.281,279.935 254.99,279.936 257.698,279.936 260.407,279.937 263.116,279.937 265.825,279.938 268.534,279.938 271.243,279.938 273.952,279.939 276.661,279.939 279.37,279.939 282.079,279.94 284.788,279.94 287.497,279.94 290.206,279.94 292.915,279.941 295.624,279.941 298.332,279.941 301.041,279.941 303.75,279.941 306.459,279.941 309.168,279.941 311.877,279.941 314.586,279.941 317.295,279.941 320.004,279.941 322.713,279.941 325.422,279.94 328.131,279.94 330.84,279.94 333.549,279.94 336.258,279.939 338.967,279.939 341.675,279.938 344.384,279.938 347.093,279.937 349.802,279.937 352.511,279.936 355.22,279.935 357.929,279.934 360.638,279.934 363.347,279.933 366.056,279.932 368.765,279.93 371.474,279.929 374.183,279.927 376.892,279.924 379.601,279.92" fill="none" stroke-linejoin="round" stroke="#ff0000"/>
   <polyline stroke-width="2" stroke-linecap="butt" stroke-dasharray="2,2,2,2,2,2,2,2,2,2" points="59.9461,59.6865 62.6551,268.189 65.364,275.638 68.0729,277.514 70.7819,278.292 73.4908,278.692 76.1998,278.939 78.9087,279.1 81.6176,279.214 84.3266,279.305 87.0355,279.375 89.7444,279.431 92.4534,279.476 95.1623,279.512 97.8712,279.544 100.58,279.573 103.289,279.598 105.998,279.619 108.707,279.638 111.416,279.656 114.125,279.671 116.834,279.686 119.543,279.699 122.252,279.711 124.961,279.722 127.67,279.732 130.378,279.742 133.087,279.751 135.796,279.759 138.505,279.767 141.214,279.775 143.923,279.781 146.632,279.788 149.341,279.794 152.05,279.8 154.759,279.805 157.468,279.81 160.177,279.815 162.886,279.82 165.595,279.824 168.304,279.828 171.013,279.832 173.721,279.836 176.43,279.84 179.139,279.843 181.848,279.847 184.557,279.85 187.266,279.853 189.975,279.856 192.684,279.859 195.393,279.861 198.102,279.864 200.811,279.867 203.52,279.869 206.229,279.872 208.938,279.874 211.647,279.876 214.355,279.878 217.064,279.88 219.773,279.882 222.482,279.884 225.191,279.886 227.9,279.888 230.609,279.89 233.318,279.891 236.027,279.893 238.736,279.894 241.445,279.896 244.154,279.897 246.863,279.899 249.572,279.9 252.281,279.901 254.99,279.902 257.698,279.903 260.407,279.905 263.116,279.906 265.825,279.907 268.534,279.908 271.243,279.908 273.952,279.909 276.661,279.91 279.37,279.911 282.079,279.912 284.788,279.912 287.497,279.913 290.206,279.914 292.915,279.914 295.624,279.915 298.332,279.915 301.041,279.915 303.75,279.915 306.459,279.916 309.168,279.916 311.877,279.916 314.586,279.916 317.295,279.916 320.004,279.916 322.713,279.916 325.422,279.916 328.131,279.916 330.84,279.915 333.549,279.915 336.258,279.915 338.967,279.914 341.675,279.914 344.384,279.913 347.093,279.912 349.802,279.911 352.511,279.91 355.22,279.909 357.929,279.908 360.638,279.907 363.347,279.905 366.056,279.904 368.765,279.902 371.474,279.901 374.183,279.897 376.892,279.893 379.601,279.887" fill="none" stroke-linejoin="round" stroke="#0000ff"/>
  </g>
 </g>
</svg>
